<svg xmlns="http://www.w3.org/2000/svg" viewBox="0 0 512 512">
  <defs>
    <linearGradient id="body" x1="0" y1="0" x2="1" y2="1">
      <stop offset="0%" stop-color="#e63946"/><stop offset="100%" stop-color="#c1121f"/>
    </linearGradient>
    <linearGradient id="dark" x1="0" y1="0" x2="0" y2="1">
      <stop offset="0%" stop-color="#a41623"/><stop offset="100%" stop-color="#780000"/>
    </linearGradient>
    <linearGradient id="green" x1="0" y1="0" x2="1" y2="1">
      <stop offset="0%" stop-color="#34c759"/><stop offset="100%" stop-color="#28a745"/>
    </linearGradient>
  </defs>
  <circle cx="256" cy="256" r="248" fill="#1a1a2e" stroke="#34c759" stroke-width="6"/>
  <ellipse cx="256" cy="280" rx="60" ry="90" fill="url(#body)" stroke="#a41623" stroke-width="2"/>
  <path d="M216 350 Q200 400 220 430 Q240 460 256 470 Q272 460 292 430 Q312 400 296 350" fill="url(#dark)" stroke="#780000" stroke-width="2"/>
  <path d="M220 430 Q240 445 256 450" fill="none" stroke="#e63946" stroke-width="3" opacity="0.6"/>
  <path d="M292 430 Q272 445 256 450" fill="none" stroke="#e63946" stroke-width="3" opacity="0.6"/>
  <ellipse cx="256" cy="190" rx="50" ry="45" fill="url(#body)" stroke="#a41623" stroke-width="2"/>
  <circle cx="238" cy="178" r="10" fill="#fff"/><circle cx="274" cy="178" r="10" fill="#fff"/>
  <circle cx="240" cy="176" r="5" fill="#1a1a2e"/><circle cx="276" cy="176" r="5" fill="#1a1a2e"/>
  <circle cx="239" cy="174" r="1.5" fill="#fff" opacity="0.8"/><circle cx="275" cy="174" r="1.5" fill="#fff" opacity="0.8"/>
  <path d="M222 170 Q180 120 160 80" fill="none" stroke="#e63946" stroke-width="3" stroke-linecap="round"/>
  <path d="M222 170 Q190 140 170 110" fill="none" stroke="#c1121f" stroke-width="2" stroke-linecap="round"/>
  <path d="M290 170 Q330 120 350 80" fill="none" stroke="#e63946" stroke-width="3" stroke-linecap="round"/>
  <path d="M290 170 Q320 140 340 110" fill="none" stroke="#c1121f" stroke-width="2" stroke-linecap="round"/>
  <path d="M210 230 Q170 220 140 250 Q130 260 140 270 Q150 280 160 270 Q170 250 210 245" fill="url(#body)" stroke="#a41623" stroke-width="2"/>
  <path d="M302 230 Q342 220 372 250 Q382 260 372 270 Q362 280 352 270 Q342 250 302 245" fill="url(#body)" stroke="#a41623" stroke-width="2"/>
  <path d="M210 280 Q180 300 170 330" fill="none" stroke="#c1121f" stroke-width="2.5" stroke-linecap="round"/>
  <path d="M210 300 Q185 320 175 350" fill="none" stroke="#a41623" stroke-width="2" stroke-linecap="round"/>
  <path d="M210 320 Q190 340 185 370" fill="none" stroke="#c1121f" stroke-width="2" stroke-linecap="round"/>
  <path d="M302 280 Q332 300 342 330" fill="none" stroke="#c1121f" stroke-width="2.5" stroke-linecap="round"/>
  <path d="M302 300 Q327 320 337 350" fill="none" stroke="#a41623" stroke-width="2" stroke-linecap="round"/>
  <path d="M302 320 Q322 340 327 370" fill="none" stroke="#c1121f" stroke-width="2" stroke-linecap="round"/>
  <circle cx="256" cy="256" r="240" fill="none" stroke="#34c759" stroke-width="2" opacity="0.15"/>
  <circle cx="256" cy="256" r="230" fill="none" stroke="#34c759" stroke-width="1" opacity="0.08"/>
</svg>
